# xmcd
#
# Track frame offsets: 
#        150
#        22167
#        40074
#        63407
#        79768
#        96405
#        114950
#        130758
#        148294
#        167147
#        179629
#        200173
#
# Disc length: 2899 seconds
#
# Revision: 0
# Processed by: cddbd v1.5.2PL0 Copyright (c) Steve Scherf et al.
# Submitted via: ExactAudioCopy v1.3
#
DISCID=b20b510c
DTITLE=Mighty Mike Schermer - Be Somebody
DYEAR=2013
DGENRE=Soul Blues
TTITLE0=Be Somebody (feat. Marcia Ball and Angela Strehli)
TTITLE1=Things Ain't Everything
TTITLE2=In My Mind's Eye (feat. Bonnie Hayes and Vicki Randle)
TTITLE3=Corazon (feat. Elvin Bishop)
TTITLE4=Do Me Like That
TTITLE5=Someday
TTITLE6=Over My Head
TTITLE7=Got To Feel Love (feat. Bonnie Hayes and Vicki Randle)
TTITLE8=Lonely Hearts (feat. Emily Gimb
TTITLE9=My Baby Only Loves Me When She's Drunk
TTITLE10=Stickin' To You (feat. Emily Gimble)
TTITLE11=Keep Reachin' For The Top
EXTD=
EXTT0=
EXTT1=
EXTT2=
EXTT3=
EXTT4=
EXTT5=
EXTT6=
EXTT7=
EXTT8=
EXTT9=
EXTT10=
EXTT11=
PLAYORDER=
